<svg version="1.2" xmlns="http://www.w3.org/2000/svg" viewBox="0 0 766 766" width="766" height="766">
	<defs>
		<linearGradient id="g1" x2="1" gradientUnits="userSpaceOnUse" gradientTransform="matrix(766,0,0,206.37,45.96,301.258)">
			<stop offset="0" stop-color="#ffffff"/>
			<stop offset=".821" stop-color="#ffffff"/>
			<stop offset=".95" stop-color="#cf123c"/>
			<stop offset="1" stop-color="#cf123c"/>
		</linearGradient>
	</defs>
	<style>
		.s0 { fill: #cf123c } 
		.s1 { fill: url(#g1) } 
		.s2 { fill: #ffffff } 
	</style>
	<g id="Folder 1">
		<path id="Warstwa 1" class="s0" d="m382 195l193.51-115.01 190.48 113.81 0.01 246.41-384 245.79-382-245.78v-246.41l190-113.81z"/>
		<path id="Warstwa 1 copy" fill-rule="evenodd" class="s1" d="m765.99 199.23l0.01 122.78-766 83.59v-122.78z"/>
		<path id="ROWEREM" class="s0" d="m20.7 300.8l36.2-4q16.2-1.8 24.8 4.3 8.6 6.1 8.6 19.2 0 9.1-4.4 15.8-4.2 6.6-12.3 10.7l18.4 30.8-21.8 2.5-15.9-28.3-14.1 1.6-0.2 30-19.5 2.2zm19.4 37.3l16.4-1.8q6.8-0.8 10.3-4 3.6-3.3 3.7-8.3 0-5.2-3.6-7.6-3.6-2.5-10.4-1.8l-16.3 1.8zm60.4-3.8q0.1-9.3 3.3-17.7 3.3-8.4 9.1-14.9 5.8-6.4 13.7-10.6 7.9-4.2 17.2-5.2 9.1-1 16.9 1.4 8 2.4 13.7 7.7 5.8 5.2 8.4 11.2 2.5 6 3.3 11.1 0.6 3.6 0.5 7.5 0 9.5-3.2 17.9-3.3 8.4-9.1 14.8-5.7 6.3-13.6 10.5-7.9 4.2-17.3 5.2-9.2 1-17.1-1.4-7.8-2.4-13.6-7.6-5.7-5.3-8.3-11.2-2.5-6-3.3-11.1-0.6-3.6-0.6-7.6zm20.1-2.3q0 2.5 0.3 4.8 0.4 2.6 1.7 5.8 1.2 3.3 4.3 6.3 3.1 2.8 7.3 4.1 4.3 1.3 9.3 0.7 5-0.5 9.2-2.8 4.3-2.3 7.4-5.8 3.1-3.7 4.7-8.3 1.8-4.7 1.8-9.9 0-2.4-0.3-4.5-0.4-2.6-1.8-5.9-1.3-3.3-4.4-6.1-3.1-3-7.3-4.3-4.1-1.3-9.2-0.7-4.9 0.5-9.1 2.9-4.2 2.2-7.3 5.9-3.1 3.5-4.9 8.1-1.8 4.5-1.7 9.7zm69-49.9l19.2-2.2 16.2 57.8 17.2-61.5 16.9-1.8 16.7 57.7 16.7-61.5 20.7-2.3-24.9 87.6-20.8 2.3-16.1-54.3-16.6 57.9-20.8 2.3zm132.9 70l0.3-84.8 60.9-6.7-0.1 17.7-41.3 4.6-0.1 17.2 34.1-3.8v15.2l-34.1 3.8-0.1 16.9 41.3-4.6v17.7zm75-93l36.1-4.1q16.2-1.8 24.8 4.4 8.7 6.1 8.7 19.1 0 9.1-4.4 15.8-4.3 6.7-12.3 10.7l18.3 30.9-21.7 2.4-16-28.2-14.1 1.6-0.1 30-19.6 2.1zm19.5 37.3l16.3-1.8q6.8-0.7 10.4-3.9 3.6-3.3 3.7-8.4 0-5.2-3.7-7.5-3.5-2.6-10.3-1.8l-16.3 1.8zm64.6 38.1l0.3-84.8 60.8-6.7v17.7l-41.3 4.6-0.1 17.2 34.1-3.8v15.2l-34.2 3.8v16.9l41.3-4.6v17.8zm74.7-8.3l0.2-84.8 26.4-3 18.8 44.4 18.9-48.5 28-3.2-0.3 84.8-19.2 2.2 0.2-60.5-17.8 46.2-18.2 2.1-17.7-42.4-0.1 60.5z"/>
		<path id="z SERCEM" class="s2" d="m206.4 438.5l-26.7 3v-15.3l48.1-5.4-0.1 15.3-27.7 36.6 28.5-3.2v15.3l-50.3 5.7v-15.3zm62-16.1q0.1-12.1 7.9-19.2 7.9-7.2 22.9-8.9 15.9-1.8 24 4.3 8.2 6.1 8.3 18.7l-18.4 2.1q-0.6-11.1-13.8-9.6-5.8 0.7-9.1 3.3-3.2 2.7-3.2 6.7 0 2.6 1.2 4.2 1.4 1.6 3.6 2.6 2.2 0.9 5 1.4 3 0.4 6.3 0.7 4.9 0.5 10.2 1.3 5.4 0.6 9.7 2.6 4.4 2.1 7.2 6.1 2.9 3.9 3 11.1 0 11.8-8.3 19-8.2 7.2-24.1 9-8.6 1-15-0.1-6.5-1.2-10.8-4.1-4.2-3.1-6.4-7.7-2-4.7-2-10.8l17.9-2q0.6 5.4 4.7 7.8 4.2 2.3 11.4 1.5 6.4-0.7 9.9-3.4 3.6-2.7 3.6-6.7 0-2.5-1.5-4-1.3-1.5-3.7-2.3-2.3-0.9-5.4-1.1-3-0.4-6.6-0.6-4.9-0.4-9.9-1.1-5.1-0.7-9.3-2.8-4.1-2.2-6.6-6.4-2.6-4.2-2.7-11.6zm78 49.1l0.3-81.3 58.4-6.6-0.1 17-39.6 4.4-0.1 16.6 32.7-3.7v14.5l-32.8 3.7v16.3l39.6-4.5v17zm72-89.4l34.6-3.9q15.6-1.7 23.8 4.1 8.3 5.9 8.3 18.4 0 8.7-4.2 15.1-4.1 6.4-11.8 10.3l17.6 29.6-20.9 2.3-15.3-27-13.5 1.5-0.1 28.8-18.8 2.1zm18.7 35.8l15.7-1.8q6.5-0.7 9.9-3.8 3.5-3.2 3.6-8-0.1-5-3.6-7.3-3.4-2.4-9.9-1.7l-15.7 1.8zm58-3.7q0.1-9.2 3.1-17.2 3.1-8.1 8.4-14.2 5.5-6.2 12.9-10.1 7.6-4 16.5-5 7.9-0.9 14.5 0.7 6.8 1.5 12 5.3 5.1 3.7 8.3 9.4 3.3 5.6 4.3 12.5 0.1 0.3 0.1 0.7l-19.9 2.2q-1.6-6.4-6.9-9.9-5.2-3.4-12.3-2.6-4.6 0.5-8.6 2.8-4 2.3-7 5.8-2.8 3.5-4.4 8-1.6 4.4-1.7 9.4 0 2.6 0.4 4.8 0.3 2.4 1.4 5.6 1.2 3.1 4.1 5.9 2.8 2.7 6.6 4.1 4 1.3 8.7 0.7 6.9-0.7 12.3-5.2 5.3-4.6 7.3-11.6l20-2.3q-1 7.6-4.3 14.2-3.4 6.5-8.7 11.4-5.1 4.8-11.9 7.9-6.8 3.1-14.6 4-8.8 0.9-16.3-1.5-7.4-2.4-12.7-7.4-5.4-5.1-7.9-10.9-2.3-5.8-3.1-10.7-0.5-3.3-0.6-6.8zm91.8 30.3l0.3-81.3 58.4-6.6-0.1 17-39.6 4.4-0.1 16.6 32.7-3.7v14.5l-32.8 3.7v16.3l39.6-4.5v17zm71.7-8.1l0.3-81.3 25.2-2.8 18.1 42.5 18.1-46.6 26.9-3-0.3 81.3-18.4 2.1 0.1-58-17 44.3-17.5 2-17-40.5-0.1 58z"/>
	</g>
</svg>